HIERARCHY
ROOT Hips
{
	OFFSET 0.00000 0.00000 0.00000
	CHANNELS 6 Xposition Yposition Zposition Zrotation Yrotation Xrotation 
	JOINT LHipJoint
	{
		OFFSET 0 0 0
		CHANNELS 3 Zrotation Yrotation Xrotation
		JOINT LeftHip
		{
			OFFSET 1.30186 -1.90722 0.65024
			CHANNELS 3 Zrotation Yrotation Xrotation
			JOINT LeftKnee
			{
				OFFSET 2.56413 -7.04489 0.00000
				CHANNELS 3 Zrotation Yrotation Xrotation
				JOINT LeftAnkle
				{
					OFFSET 2.79321 -7.67428 0.00000
					CHANNELS 3 Zrotation Yrotation Xrotation
					JOINT LeftToe
					{
						OFFSET 0.15723 -0.43198 2.08537
						CHANNELS 3 Zrotation Yrotation Xrotation
						End Site
						{
							OFFSET 0.00000 -0.00000 1.07411
						}
					}
				}
			}
		}
	}
	JOINT RHipJoint
	{
		OFFSET 0 0 0
		CHANNELS 3 Zrotation Yrotation Xrotation
		JOINT RightHip
		{
			OFFSET -1.28627 -1.90723 0.65024
			CHANNELS 3 Zrotation Yrotation Xrotation
			JOINT RightKnee
			{
				OFFSET -2.56567 -7.04913 0.00000
				CHANNELS 3 Zrotation Yrotation Xrotation
				JOINT RightAnkle
				{
					OFFSET -2.75597 -7.57198 0.00000
					CHANNELS 3 Zrotation Yrotation Xrotation
					JOINT RightToe
					{
						OFFSET -0.17500 -0.48081 2.22901
						CHANNELS 3 Zrotation Yrotation Xrotation
						End Site
						{
							OFFSET -0.00000 -0.00000 1.14762
						}
					}
				}
			}
		}
	}
	JOINT lowerback
	{
		OFFSET 0 0 0
		CHANNELS 3 Zrotation Yrotation Xrotation
		JOINT Chest
		{
			OFFSET -0.04522 2.07467 -0.16566
			CHANNELS 3 Zrotation Yrotation Xrotation
			JOINT Chest2
			{
				OFFSET -0.01178 2.08825 -0.05393
				CHANNELS 3 Zrotation Yrotation Xrotation
				JOINT lowerneck
				{
					OFFSET 0 0 0
					CHANNELS 3 Zrotation Yrotation Xrotation
					JOINT Neck
					{
						OFFSET -0.05182 1.80489 0.16014
						CHANNELS 3 Zrotation Yrotation Xrotation
						JOINT Head
						{
							OFFSET 0.14739 1.78840 -0.33342
							CHANNELS 3 Zrotation Yrotation Xrotation
							End Site
							{
								OFFSET 0.04364 1.83899 -0.13460
							}
						}
					}
				}
				JOINT LeftCollar
				{
					OFFSET 0 0 0
					CHANNELS 3 Zrotation Yrotation Xrotation
					JOINT LeftShoulder
					{
						OFFSET 3.01264 1.29090 -0.06579
CHANNELS 3 Zrotation Xrotation Yrotation
						JOINT LeftElbow
						{
OFFSET 0 -5.556800 0.000000
CHANNELS 3 Zrotation Xrotation Yrotation
							JOINT LeftWrist
							{
OFFSET 0 -3.639790 -0.000000
CHANNELS 3 Zrotation Xrotation Yrotation
								JOINT lhand
								{
									OFFSET 0 0 0
CHANNELS 3 Zrotation Xrotation Yrotation
									JOINT LFingers
									{
OFFSET 0 -0.569420 -0.000000
CHANNELS 3 Zrotation Xrotation Yrotation
										End Site
										{
OFFSET 0 -0.459080 -0.000000
										}
									}
								}
								JOINT LThumb
								{
OFFSET 0 0.000000 0.000000
CHANNELS 3 Zrotation Xrotation Yrotation
									End Site
									{
OFFSET 0 -0.466090 0.466090
									}
								}
							}
						}
					}
				}
				JOINT RightCollar
				{
					OFFSET 0 0 0
					CHANNELS 3 Zrotation Yrotation Xrotation
					JOINT RightShoulder
					{
						OFFSET -3.15796 1.37283 -0.36748
CHANNELS 3 Zrotation Xrotation Yrotation
						JOINT RightElbow
						{
OFFSET 0 -5.343390 0.000000
CHANNELS 3 Zrotation Xrotation Yrotation
							JOINT RightWrist
							{
OFFSET 0 -3.651010 -0.000000
CHANNELS 3 Zrotation Xrotation Yrotation
								JOINT rhand
								{
									OFFSET 0 0 0
CHANNELS 3 Zrotation Xrotation Yrotation
									JOINT RFingers
									{
OFFSET 0 -0.694250 -0.000000
CHANNELS 3 Zrotation Xrotation Yrotation
										End Site
										{
OFFSET 0 -0.559720 -0.000000
										}
									}
								}
								JOINT RThumb
								{
OFFSET 0 0.000000 0.000000
CHANNELS 3 Zrotation Xrotation Yrotation
									End Site
									{
OFFSET 0 -0.568270 0.568270
									}
								}
							}
						}
					}
				}
			}
		}
	}
}
MOTION
Frames: 5
Frame Time: 0.008333333333333333
3.838342 18.469882 5.629195 174.956451 4.647656 -176.326638 0.000000 0.000000 0.000000 -28.437072 -7.787976 -16.208323 1.726265 8.270844 23.539892 0.281821 2.003655 -10.970824 0.008934 -0.555431 -1.526451 0.000000 0.000000 0.000000 11.194842 10.871546 -7.299083 -10.077653 -17.450343 59.743546 -1.395368 1.384078 22.831537 -0.052808 -1.482760 4.078241 -6.971139 -0.184388 3.329764 -2.148970 -0.231626 2.127467 1.697874 -0.084383 0.358829 -1.830166 -0.799701 -15.595275 -3.331603 0.247515 16.516878 -0.757059 -0.224325 7.675165 0.000000 0.000000 0.000000 12.025822 6.237217 -8.802877 11.273721 -18.706373 1.862935 19.708116 16.657514 -22.014752 0.000000 0.000000 0.000000 -7.125000 0.000000 0.000000 -9.477892 52.975287 1.874823 0.000000 0.000000 0.000000 -26.270283 2.150394 41.475610 -61.039111 -56.580482 -35.207059 -4.182497 7.970786 -36.105132 0.000000 0.000000 0.000000 7.125000 0.000000 0.000000 15.672369 -5.039261 17.622438
3.828762 18.470155 5.563156 174.885720 4.629079 -176.389486 0.000000 0.000000 0.000000 -28.614648 -7.548674 -15.895178 1.709298 8.232122 23.421473 0.298446 1.743622 -11.106380 0.003221 -0.310637 -0.853514 0.000000 0.000000 0.000000 10.992350 10.949495 -7.985755 -10.356770 -17.603745 60.671756 -1.253318 1.340961 21.657029 -0.051108 -1.458776 4.012136 -6.993814 -0.234404 3.363201 -2.117246 -0.307607 2.089525 1.745428 -0.121892 0.307204 -1.817192 -0.751519 -15.505396 -3.377340 0.333964 16.663971 -0.764481 -0.183543 7.709095 0.000000 0.000000 0.000000 12.045304 5.862863 -9.752457 11.403059 -18.903248 1.904613 19.891671 16.449011 -21.638147 0.000000 0.000000 0.000000 -7.125000 0.000000 0.000000 -9.155405 52.622869 1.732597 0.000000 0.000000 0.000000 -26.411439 2.067522 41.771652 -61.016776 -56.574824 -35.188415 -2.066386 9.119745 -36.864046 0.000000 0.000000 0.000000 7.125000 0.000000 0.000000 16.782678 -5.532110 19.157645
3.819237 18.470292 5.495293 174.815533 4.662532 -176.442810 0.000000 0.000000 0.000000 -28.792713 -7.355523 -15.536996 1.685963 8.178571 23.257856 0.316676 1.562503 -11.315301 0.001534 -0.083396 -0.229123 0.000000 0.000000 0.000000 10.786483 11.071092 -8.697925 -10.626716 -17.744574 61.559393 -1.128029 1.147036 20.481215 -0.048647 -1.423227 3.914193 -7.026856 -0.260474 3.354268 -2.071944 -0.345846 2.082142 1.811513 -0.142721 0.308207 -1.812954 -0.722031 -15.481559 -3.437501 0.400141 16.800152 -0.777834 -0.155605 7.751025 0.000000 0.000000 0.000000 12.048540 5.430438 -10.687994 11.538465 -19.108613 1.948822 20.137052 16.199118 -21.151578 0.000000 0.000000 0.000000 -7.125000 0.000000 0.000000 -8.737974 52.166881 1.556628 0.000000 0.000000 0.000000 -26.578064 1.938770 42.009786 -61.040293 -56.580840 -35.208058 0.148423 10.368709 -40.178877 0.000000 0.000000 0.000000 7.125000 0.000000 0.000000 18.035196 -8.487483 21.559908
3.809711 18.470781 5.427317 174.749818 4.673070 -176.489472 0.000000 0.000000 0.000000 -28.965345 -7.175979 -15.171963 1.661591 8.122335 23.086245 0.333498 1.381346 -11.500764 0.000181 0.090586 0.248913 0.000000 0.000000 0.000000 10.589029 11.175636 -9.414082 -10.892761 -17.881255 62.431577 -1.004853 0.967527 19.300709 -0.047813 -1.410677 3.879636 -7.048451 -0.286733 3.332898 -2.029020 -0.382485 2.079345 1.868663 -0.163016 0.320676 -1.801464 -0.703325 -15.459579 -3.503941 0.450797 16.932270 -0.796203 -0.135270 7.791813 0.000000 0.000000 0.000000 12.066478 4.967106 -11.631858 11.662633 -19.296793 1.989462 20.388286 15.999697 -20.742744 0.000000 0.000000 0.000000 -7.125000 0.000000 0.000000 -8.343087 51.791360 1.403592 0.000000 0.000000 0.000000 -26.736078 1.811036 42.221875 -61.064238 -56.586951 -35.228053 1.778759 11.258078 -42.838817 0.000000 0.000000 0.000000 7.125000 0.000000 0.000000 18.970684 -10.871400 23.396396
3.800186 18.472604 5.358907 174.701052 4.596776 -176.510893 0.000000 0.000000 0.000000 -29.117386 -7.048002 -14.780967 1.633288 8.055931 22.884343 0.344983 1.200045 -11.597340 0.000090 0.062739 0.172346 0.000000 0.000000 0.000000 10.423451 11.215560 -10.145348 -11.144021 -18.002214 63.245199 -0.889683 0.842648 18.102426 -0.053146 -1.485285 4.085274 -7.026666 -0.313714 3.264397 -1.995112 -0.413067 2.093929 1.891952 -0.181292 0.376598 -1.762496 -0.725475 -15.444630 -3.594182 0.442639 17.048990 -0.833575 -0.143747 7.828273 0.000000 0.000000 0.000000 12.140128 4.386651 -12.607275 11.744214 -19.419848 2.016580 20.661696 15.991539 -20.628485 0.000000 0.000000 0.000000 -7.125000 0.000000 0.000000 -8.033627 51.720763 1.337462 0.000000 0.000000 0.000000 -26.861458 1.687160 42.335268 -61.089807 -56.593423 -35.249383 1.194247 10.784771 -43.017064 0.000000 0.000000 0.000000 7.125000 0.000000 0.000000 18.704794 -11.089800 23.088895
